<svg xmlns="http://www.w3.org/2000/svg" viewBox="0 0 600 800" fill="none">
  
  <g stroke="#2D5016" stroke-width="2" stroke-linecap="round" fill="none" opacity="0.9">
    
    <path d="M300 760 C 305 600, 290 420, 280 280 C 275 200, 290 130, 320 70"></path>
    
    <path d="M295 700 C 240 695, 195 670, 165 640"></path>
    <path d="M305 700 C 360 695, 405 670, 435 640"></path>
    <path d="M292 640 C 235 635, 185 605, 160 575"></path>
    <path d="M308 640 C 365 635, 415 605, 440 575"></path>
    <path d="M289 580 C 232 575, 180 540, 158 510"></path>
    <path d="M311 580 C 368 575, 420 540, 442 510"></path>
    <path d="M286 520 C 232 515, 182 480, 162 450"></path>
    <path d="M314 520 C 368 515, 418 480, 438 450"></path>
    <path d="M283 460 C 235 455, 190 420, 172 392"></path>
    <path d="M317 460 C 365 455, 410 420, 428 392"></path>
    <path d="M281 400 C 240 395, 200 365, 184 340"></path>
    <path d="M319 400 C 360 395, 400 365, 416 340"></path>
    <path d="M280 340 C 245 335, 212 310, 198 290"></path>
    <path d="M320 340 C 355 335, 388 310, 402 290"></path>
    <path d="M281 282 C 252 278, 226 258, 216 244"></path>
    <path d="M319 282 C 348 278, 374 258, 384 244"></path>
    <path d="M285 232 C 262 228, 244 215, 238 205"></path>
    <path d="M315 232 C 338 228, 356 215, 362 205"></path>
    <path d="M292 188 C 278 185, 268 178, 264 172"></path>
    <path d="M308 188 C 322 185, 332 178, 336 172"></path>
  </g>
</svg>